<svg width="195" height="56" viewBox="0 0 195 56" fill="none" xmlns="http://www.w3.org/2000/svg">
<path d="M27.3314 0.0349629C19.9459 0.392458 12.9868 3.47252 7.8979 8.63617C2.80897 13.7998 -0.0192025 20.6507 9.80156e-05 27.7676C0.0193986 34.8845 2.88469 41.7211 8.00156 46.8591C13.1184 51.9971 20.0941 55.0422 27.4815 55.3626L27.9009 46.4052C22.9052 46.1886 18.1879 44.1294 14.7276 40.6548C11.2674 37.1802 9.32972 32.557 9.31667 27.7442C9.30362 22.9314 11.2162 18.2985 14.6575 14.8066C18.0989 11.3147 22.805 9.23183 27.7994 8.99007L27.3314 0.0349629Z" fill="#8CE553"/>
<ellipse cx="39.6696" cy="16.2675" rx="5.51334" ry="5.51218" fill="#3672EA"/>
<path d="M48.8126 23.5273H27.4316V32.4006H40.4754V46.9205H48.8126V23.5273Z" fill="#8CE553"/>
<path d="M110.285 28.3682C110.285 33.4173 106.071 37.5104 100.872 37.5104C95.6733 37.5104 91.459 33.4173 91.459 28.3682C91.459 23.3192 95.6733 19.2261 100.872 19.2261C106.071 19.2261 110.285 23.3192 110.285 28.3682ZM95.5425 28.3682C95.5425 31.2269 97.9286 33.5443 100.872 33.5443C103.815 33.5443 106.201 31.2269 106.201 28.3682C106.201 25.5095 103.815 23.1921 100.872 23.1921C97.9286 23.1921 95.5425 25.5095 95.5425 28.3682Z" fill="#3672EA"/>
<path d="M156.004 24.603C156.004 31.5826 150.164 37.2407 142.96 37.2407C135.756 37.2407 129.916 31.5826 129.916 24.603C129.916 17.6234 135.756 11.9653 142.96 11.9653C150.164 11.9653 156.004 17.6234 156.004 24.603ZM134.559 24.603C134.559 29.0982 138.32 32.7422 142.96 32.7422C147.599 32.7422 151.361 29.0982 151.361 24.603C151.361 20.1078 147.599 16.4638 142.96 16.4638C138.32 16.4638 134.559 20.1078 134.559 24.603Z" fill="#3672EA"/>
<path d="M72.4365 12.499C75.4463 11.5777 78.6815 11.8583 81.5 13.2852C83.874 14.487 85.8029 16.4293 87.0322 18.8164C87.0765 18.8308 87.1157 18.8609 87.1396 18.9072C87.4446 19.4981 87.8674 20.5585 87.8379 21.4727C87.8347 21.5717 87.7523 21.6481 87.6533 21.6514L84.3096 21.7627C84.2091 21.766 84.1365 21.6993 84.1133 21.6182L83.876 21.7139C83.1076 19.6714 81.6229 18.0011 79.7168 17.0361C77.8109 16.0713 75.6231 15.8819 73.5879 16.5049C71.5526 17.1279 69.8185 18.5181 68.7305 20.3994C67.6425 22.2809 67.2799 24.5166 67.7148 26.6611C68.1499 28.8055 69.3505 30.7025 71.0781 31.9756C72.8059 33.2487 74.9345 33.8048 77.041 33.5332C79.1476 33.2615 81.0782 32.1817 82.4492 30.5088C83.0134 29.8204 83.464 29.0516 83.7949 28.2334H75.3828C75.2736 28.2334 75.1846 28.1444 75.1846 28.0352V24.5322C75.1846 24.423 75.2736 24.334 75.3828 24.334H88.0654C88.0847 24.334 88.1031 24.3371 88.1201 24.3418L88.4873 24.3262C88.6202 27.5631 87.5683 30.7333 85.541 33.207C83.5136 35.6808 80.6582 37.2779 77.543 37.6797C74.4279 38.0814 71.2805 37.2586 68.7256 35.376C66.1707 33.4933 64.3952 30.6878 63.752 27.5166C63.1088 24.3454 63.6451 21.04 65.2539 18.2578C66.8628 15.4758 69.4269 13.4203 72.4365 12.499Z" fill="#3672EA"/>
<path d="M110.688 19.4946L117.008 34.6867L113.646 43.4255H123.597V39.3922H119.025L127.362 19.4946H123.597L119.025 30.2501L114.184 19.4946H110.688Z" fill="#3672EA"/>
<path d="M162.725 20.0195C163.629 19.4616 165.201 18.806 166.947 18.9873C170.658 19.3726 174.02 20.4003 174.02 26.7549V37.1064H170.12C170.165 34.5072 169.959 28.6099 169.852 25.8135C169.744 23.0173 167.06 22.814 165.865 22.9277C164.242 23.0883 163.298 24.3118 162.725 25.4619V36.7041H159.229V19.2266H162.725V20.0195Z" fill="#3672EA"/>
<path d="M185.587 19.0903C193.225 18.5527 195.045 25.6782 195 29.3081H181.149C181.687 32.6419 183.57 33.7446 185.479 33.7446C189.89 33.7446 190.831 31.5933 191.369 29.98L194.462 31.5933C192.203 36.218 188.501 37.2845 186.932 37.2397C180.047 37.4548 177.608 32.0419 177.249 29.3081C176.846 26.1263 177.949 19.6281 185.587 19.0903ZM185.989 22.7202C182.547 22.7204 181.508 24.8712 181.418 25.9468H190.831C190.652 24.8712 189.431 22.7202 185.989 22.7202Z" fill="#3672EA"/>
</svg>
